:FULLY-SPECIFIED
:FORCE-ALL-JOINTS-BE-3DOF
:DEGREES
408
root 4.51114 16.2684 -11.4699 4.3726 -33.2398 -5.03574
lfemur -30.6028 4.27751 -6.39137
ltibia 43.6825 0 0
lfoot -10.8139 12.7421 0
ltoes -0.55905 0 0
rfemur -30.6057 -14.1325 22.4036
rtibia 66.5284 0 0
rfoot 1.81201 -1.25214 0
rtoes 23.4461 0 0
lowerback 4.921 3.89848 1.64307
upperback 1.73518 5.24812 -1.12881
thorax -0.719301 2.62493 -2.33828
lowerneck -6.30687 1.88794 7.29581
upperneck 3.68144 1.86829 0.483562
head 2.38902 1.04954 -1.0382
lclavicle -2.85032e-14 1.69983e-15 0
lhumerus -44.2238 -19.677 94.4033
lradius 50.6771 0 0
lwrist 17.09 0 0
lhand -16.8634 3.05825 0
lfingers 7.12502 0 0
lthumb 9.36634 32.8097 0
rclavicle -2.85032e-14 1.69983e-15 0
rhumerus -45.1745 9.44452 -91.6014
rradius 62.7571 0 0
rwrist 9.4331 0 0
rhand -21.1642 -18.5576 0
rfingers 7.12502 0 0
rthumb 5.21452 -768.406 0
409
root 4.4233 16.239 -11.329 4.19257 -33.2497 -5.01016
lfemur -30.2835 4.77659 -6.32128
ltibia 44.6437 0 0
lfoot -11.7399 12.2544 0
ltoes -0.817368 0 0
rfemur -31.8383 -13.5219 21.3139
rtibia 65.6471 0 0
rfoot 2.16094 -1.16683 0
rtoes 22.3607 0 0
lowerback 5.10726 3.80522 1.71733
upperback 1.76389 5.1294 -1.14618
thorax -0.791986 2.56485 -2.40355
lowerneck -6.32402 2.12261 7.48761
upperneck 3.7292 2.18018 0.158999
head 2.43416 1.19965 -1.165
lclavicle -3.10874e-14 5.09074e-15 0
lhumerus -44.1972 -19.7433 94.5009
lradius 50.4468 0 0
lwrist 16.761 0 0
lhand -17.3002 2.74676 0
lfingers 7.12502 0 0
lthumb 8.9448 32.5149 0
rclavicle -3.10874e-14 5.09074e-15 0
rhumerus -45.2659 9.03327 -91.305
rradius 63.3721 0 0
rwrist 9.68389 0 0
rhand -21.9748 -18.7107 0
rfingers 7.12502 0 0
rthumb 4.43184 -768.571 0
410
root 4.33297 16.2088 -11.1841 4.00744 -33.26 -4.98385
lfemur -29.9553 5.28977 -6.24921
ltibia 45.632 0 0
lfoot -12.6921 11.753 0
ltoes -1.08298 0 0
rfemur -33.1058 -12.8941 20.1934
rtibia 64.741 0 0
rfoot 2.51973 -1.07911 0
rtoes 21.2446 0 0
lowerback 5.29878 3.70932 1.79369
upperback 1.79341 5.00733 -1.16403
thorax -0.866725 2.50306 -2.47066
lowerneck -6.34166 2.36391 7.68484
upperneck 3.77831 2.50088 -0.174735
head 2.48057 1.354 -1.29538
lclavicle -3.37447e-14 8.57747e-15 0
lhumerus -44.17 -19.8115 94.6014
lradius 50.21 0 0
lwrist 16.4227 0 0
lhand -17.7494 2.42646 0
lfingers 7.12502 0 0
lthumb 8.51135 32.2118 0
rclavicle -3.37447e-14 8.57747e-15 0
rhumerus -45.3599 8.6104 -91.0002
rradius 64.0044 0 0
rwrist 9.94178 0 0
rhand -22.8083 -18.8681 0
rfingers 7.12502 0 0
rthumb 3.62704 -768.741 0
411
root 4.24182 16.1782 -11.038 3.82062 -33.2704 -4.95729
lfemur -29.624 5.80765 -6.17648
ltibia 46.6295 0 0
lfoot -13.6531 11.2469 0
ltoes -1.35104 0 0
rfemur -34.3849 -12.2604 19.0626
rtibia 63.8265 0 0
rfoot 2.88181 -0.990582 0
rtoes 20.1182 0 0
lowerback 5.49207 3.61253 1.87075
upperback 1.82319 4.88413 -1.18206
thorax -0.942148 2.44071 -2.53838
lowerneck -6.35946 2.60742 7.88387
upperneck 3.82788 2.82452 -0.511525
head 2.52741 1.50976 -1.42695
lclavicle -3.64262e-14 1.20961e-14 0
lhumerus -44.1424 -19.8803 94.7027
lradius 49.971 0 0
lwrist 16.0814 0 0
lhand -18.2026 2.10322 0
lfingers 7.12502 0 0
lthumb 8.07394 31.9059 0
rclavicle -3.64262e-14 1.20961e-14 0
rhumerus -45.4548 8.18365 -90.6926
rradius 64.6425 0 0
rwrist 10.202 0 0
rhand -23.6493 -19.027 0
rfingers 7.12502 0 0
rthumb 2.81488 -768.912 0
412
root 4.15149 16.148 -10.8931 3.63549 -33.2807 -4.93098
lfemur -29.2958 6.32083 -6.10441
ltibia 47.6178 0 0
lfoot -14.6053 10.7455 0
ltoes -1.61665 0 0
rfemur -35.6524 -11.6326 17.9421
rtibia 62.9204 0 0
rfoot 3.2406 -0.902862 0
rtoes 19.0021 0 0
lowerback 5.68359 3.51663 1.94711
upperback 1.85271 4.76206 -1.19991
thorax -1.01689 2.37892 -2.60549
lowerneck -6.3771 2.84871 8.0811
upperneck 3.87699 3.14522 -0.845259
head 2.57382 1.66411 -1.55733
lclavicle -3.90835e-14 1.55829e-14 0
lhumerus -44.1152 -19.9485 94.8032
lradius 49.7342 0 0
lwrist 15.7431 0 0
lhand -18.6518 1.78293 0
lfingers 7.12502 0 0
lthumb 7.64049 31.6028 0
rclavicle -3.90835e-14 1.55829e-14 0
rhumerus -45.5488 7.76078 -90.3878
rradius 65.2748 0 0
rwrist 10.4599 0 0
rhand -24.4828 -19.1844 0
rfingers 7.12502 0 0
rthumb 2.01008 -769.082 0
413
root 4.06365 16.1186 -10.7522 3.45546 -33.2906 -4.9054
lfemur -28.9765 6.81991 -6.03432
ltibia 48.579 0 0
lfoot -15.5314 10.2578 0
ltoes -1.87497 0 0
rfemur -36.885 -11.022 16.8524
rtibia 62.0391 0 0
rfoot 3.58953 -0.817552 0
rtoes 17.9167 0 0
lowerback 5.86985 3.42337 2.02137
upperback 1.88142 4.64334 -1.21728
thorax -1.08957 2.31884 -2.67076
lowerneck -6.39425 3.08338 8.2729
upperneck 3.92475 3.45711 -1.16982
head 2.61896 1.81422 -1.68412
lclavicle -4.16677e-14 1.89738e-14 0
lhumerus -44.0886 -20.0148 94.9008
lradius 49.5039 0 0
lwrist 15.4141 0 0
lhand -19.0886 1.47143 0
lfingers 7.12502 0 0
lthumb 7.21895 31.308 0
rclavicle -4.16677e-14 1.89738e-14 0
rhumerus -45.6402 7.34953 -90.0914
rradius 65.8898 0 0
rwrist 10.7107 0 0
rhand -25.2934 -19.3375 0
rfingers 7.12502 0 0
rthumb 1.2274 -769.247 0
414
root 3.97994 16.0905 -10.618 3.2839 -33.3002 -4.88101
lfemur -28.6723 7.29548 -5.96754
ltibia 49.4949 0 0
lfoot -16.4138 9.79307 0
ltoes -2.12112 0 0
rfemur -38.0596 -10.4401 15.814
rtibia 61.1994 0 0
rfoot 3.92203 -0.73626 0
rtoes 16.8824 0 0
lowerback 6.04734 3.33449 2.09213
upperback 1.90877 4.53021 -1.23383
thorax -1.15883 2.26158 -2.73295
lowerneck -6.4106 3.307 8.45567
upperneck 3.97026 3.7543 -1.4791
head 2.66197 1.95726 -1.80495
lclavicle -4.41302e-14 2.2205e-14 0
lhumerus -44.0634 -20.0779 94.9939
lradius 49.2845 0 0
lwrist 15.1006 0 0
lhand -19.5048 1.1746 0
lfingers 7.12502 0 0
lthumb 6.81726 31.0271 0
rclavicle -4.41302e-14 2.2205e-14 0
rhumerus -45.7274 6.95765 -89.809
rradius 66.4757 0 0
rwrist 10.9497 0 0
rhand -26.0657 -19.4834 0
rfingers 7.12502 0 0
rthumb 0.481581 -769.404 0
415
root 3.90202 16.0644 -10.493 3.12421 -33.309 -4.85832
lfemur -28.3891 7.73815 -5.90537
ltibia 50.3475 0 0
lfoot -17.2352 9.36052 0
ltoes -2.35024 0 0
rfemur -39.1529 -9.89854 14.8474
rtibia 60.4177 0 0
rfoot 4.23152 -0.660593 0
rtoes 15.9197 0 0
lowerback 6.21255 3.25177 2.15799
upperback 1.93423 4.42491 -1.24923
thorax -1.2233 2.20829 -2.79084
lowerneck -6.42582 3.51514 8.6258
upperneck 4.01263 4.03094 -1.76698
head 2.70201 2.09041 -1.91741
lclavicle -4.64223e-14 2.52126e-14 0
lhumerus -44.0398 -20.1367 95.0806
lradius 49.0802 0 0
lwrist 14.8088 0 0
lhand -19.8922 0.898316 0
lfingers 7.12502 0 0
lthumb 6.44337 30.7656 0
rclavicle -4.64223e-14 2.52126e-14 0
rhumerus -45.8085 6.59288 -89.5461
rradius 67.0212 0 0
rwrist 11.1721 0 0
rhand -26.7847 -19.6192 0
rfingers 7.12502 0 0
rthumb -0.212633 -769.55 0
416
root 3.83155 16.0408 -10.38 2.97978 -33.317 -4.83779
lfemur -28.133 8.13851 -5.84915
ltibia 51.1186 0 0
lfoot -17.9781 8.9693 0
ltoes -2.55746 0 0
rfemur -40.1417 -9.40871 13.9733
rtibia 59.7108 0 0
rfoot 4.51143 -0.592158 0
rtoes 15.049 0 0
lowerback 6.36197 3.17695 2.21757
upperback 1.95726 4.32967 -1.26317
thorax -1.28161 2.16008 -2.8432
lowerneck -6.43958 3.70339 8.77966
upperneck 4.05094 4.28113 -2.02734
head 2.73822 2.21082 -2.01913
lclavicle -4.84953e-14 2.79328e-14 0
lhumerus -44.0186 -20.1899 95.1589
lradius 48.8954 0 0
lwrist 14.5448 0 0
lhand -20.2426 0.648434 0
lfingers 7.12502 0 0
lthumb 6.10521 30.5292 0
rclavicle -4.84953e-14 2.79328e-14 0
rhumerus -45.8818 6.26298 -89.3083
rradius 67.5145 0 0
rwrist 11.3733 0 0
rhand -27.4349 -19.742 0
rfingers 7.12502 0 0
rthumb -0.840497 -769.683 0
417
root 3.77019 16.0203 -10.2816 2.85401 -33.324 -4.81992
lfemur -27.91 8.48716 -5.80018
ltibia 51.79 0 0
lfoot -18.625 8.62862 0
ltoes -2.73792 0 0
rfemur -41.0028 -8.98215 13.212
rtibia 59.0951 0 0
rfoot 4.75519 -0.532561 0
rtoes 14.2907 0 0
lowerback 6.49209 3.1118 2.26944
upperback 1.97731 4.24674 -1.2753
thorax -1.33239 2.11811 -2.8888
lowerneck -6.45156 3.86732 8.91366
upperneck 4.08431 4.49902 -2.25407
head 2.76975 2.31569 -2.10771
lclavicle -5.03006e-14 3.03016e-14 0
lhumerus -44 -20.2362 95.2272
lradius 48.7346 0 0
lwrist 14.315 0 0
lhand -20.5478 0.430827 0
lfingers 7.12502 0 0
lthumb 5.81073 30.3232 0
rclavicle -5.03006e-14 3.03016e-14 0
rhumerus -45.9457 5.97568 -89.1013
rradius 67.9441 0 0
rwrist 11.5485 0 0
rhand -28.0011 -19.8489 0
rfingers 7.12502 0 0
rthumb -1.38727 -769.798 0
418
root 3.71957 16.0033 -10.2005 2.75028 -33.3298 -4.80518
lfemur -27.7261 8.77469 -5.7598
ltibia 52.3438 0 0
lfoot -19.1585 8.34765 0
ltoes -2.88675 0 0
rfemur -41.713 -8.63035 12.5842
rtibia 58.5874 0 0
rfoot 4.95622 -0.483411 0
rtoes 13.6653 0 0
lowerback 6.59941 3.05806 2.31223
upperback 1.99385 4.17834 -1.2853
thorax -1.37426 2.08349 -2.9264
lowerneck -6.46144 4.00252 9.02416
upperneck 4.11183 4.67871 -2.44107
head 2.79576 2.40217 -2.18076
lclavicle -5.17894e-14 3.22553e-14 0
lhumerus -43.9848 -20.2744 95.2834
lradius 48.6019 0 0
lwrist 14.1255 0 0
lhand -20.7994 0.251362 0
lfingers 7.12502 0 0
lthumb 5.56787 30.1534 0
rclavicle -5.17894e-14 3.22553e-14 0
rhumerus -45.9984 5.73875 -88.9305
rradius 68.2984 0 0
rwrist 11.693 0 0
rhand -28.4681 -19.9371 0
rfingers 7.12502 0 0
rthumb -1.8382 -769.893 0
419
root 3.68138 15.9905 -10.1392 2.67199 -33.3341 -4.79405
lfemur -27.5873 8.99172 -5.72933
ltibia 52.7618 0 0
lfoot -19.5612 8.13558 0
ltoes -2.99908 0 0
rfemur -42.249 -8.36483 12.1103
rtibia 58.2042 0 0
rfoot 5.10796 -0.446314 0
rtoes 13.1933 0 0
lowerback 6.6804 3.0175 2.34452
upperback 2.00633 4.12671 -1.29286
thorax -1.40587 2.05736 -2.95478
lowerneck -6.4689 4.10457 9.10757
upperneck 4.13259 4.81433 -2.5822
head 2.81539 2.46745 -2.23589
lclavicle -5.29132e-14 3.37298e-14 0
lhumerus -43.9732 -20.3032 95.3259
lradius 48.5017 0 0
lwrist 13.9824 0 0
lhand -20.9894 0.115908 0
lfingers 7.12502 0 0
lthumb 5.38456 30.0252 0
rclavicle -5.29132e-14 3.37298e-14 0
rhumerus -46.0381 5.55991 -88.8016
rradius 68.5658 0 0
rwrist 11.8021 0 0
rhand -28.8206 -20.0037 0
rfingers 7.12502 0 0
rthumb -2.17855 -769.965 0
420
root 3.65724 15.9824 -10.1005 2.62253 -33.3368 -4.78702
lfemur -27.4996 9.12883 -5.71007
ltibia 53.0259 0 0
lfoot -19.8156 8.0016 0
ltoes -3.07004 0 0
rfemur -42.5877 -8.19708 11.811
rtibia 57.9621 0 0
rfoot 5.20382 -0.422877 0
rtoes 12.8951 0 0
lowerback 6.73157 2.99188 2.36492
upperback 2.01422 4.0941 -1.29763
thorax -1.42584 2.04085 -2.97271
lowerneck -6.47362 4.16904 9.16026
upperneck 4.14572 4.90001 -2.67137
head 2.82779 2.50869 -2.27073
lclavicle -5.36231e-14 3.46614e-14 0
lhumerus -43.9659 -20.3215 95.3527
lradius 48.4385 0 0
lwrist 13.892 0 0
lhand -21.1094 0.0303317 0
lfingers 7.12502 0 0
lthumb 5.26876 29.9442 0
rclavicle -5.36231e-14 3.46614e-14 0
rhumerus -46.0632 5.44693 -88.7202
rradius 68.7347 0 0
rwrist 11.871 0 0
rhand -29.0433 -20.0457 0
rfingers 7.12502 0 0
rthumb -2.39357 -770.01 0
